<?xml version="1.0" encoding="utf-8"?>
<!-- Generator: Adobe Illustrator 27.5.0, SVG Export Plug-In . SVG Version: 6.00 Build 0)  -->
<svg version="1.1" xmlns="http://www.w3.org/2000/svg" xmlns:xlink="http://www.w3.org/1999/xlink" x="0px" y="0px"
	 viewBox="0 0 1200 1200" style="enable-background:new 0 0 1200 1200;" xml:space="preserve">
<g id="BG">
	<rect transform="matrix(-1.836970e-16 1 -1 -1.836970e-16 1200 1.136868e-13)" style="fill:#005C6E;" width="1200" height="1200"/>
	
		<rect x="300" y="-300" transform="matrix(-1.836970e-16 1 -1 -1.836970e-16 900 -300)" style="fill:#004957;" width="600" height="1200"/>
</g>
<g id="Object">
	<path style="fill:#EBBB9B;" d="M750.46,498.441c5.682-2.565,12.467-3.392,18.108-0.737c6.208,2.922,9.976,9.546,11.396,16.259
		c2.272,10.738-0.657,22.274-7.022,31.215c-6.365,8.941-15.949,15.35-26.377,18.773c-3.973,1.304-9.103,1.867-11.635-1.461
		c-1.482-1.948-1.512-4.599-1.479-7.047c0.174-12.668,0.266-25.341,0.522-38.008C734.171,507.566,741.706,502.393,750.46,498.441z"
		/>
	<polygon style="fill:#EBBB9B;" points="491.076,1172.382 552.234,1075.876 707.603,991.337 670.867,707.963 436.015,802.639 
		415.753,969.687 370.71,1119.09 	"/>
	<g>
		<g>
			<path style="fill:#FFFFFF;" d="M707.891,1011.623H492.563c-20.956,0-38.004-17.048-38.004-38.005V468.596
				c0-20.955,17.048-38.004,38.004-38.004h215.329c20.954,0,38.003,17.048,38.003,38.004v505.022
				C745.894,994.574,728.846,1011.623,707.891,1011.623z"/>
		</g>
		<g>
			<g>
				<linearGradient id="SVGID_1_" gradientUnits="userSpaceOnUse" x1="452.0587" y1="721.1072" x2="748.394" y2="721.1072">
					<stop  offset="0" style="stop-color:#F5F5F5"/>
					<stop  offset="0.8341" style="stop-color:#C8C8CA"/>
				</linearGradient>
				<path style="fill:url(#SVGID_1_);" d="M707.891,1014.122H492.563c-22.334,0-40.504-18.17-40.504-40.505V468.596
					c0-22.334,18.17-40.504,40.504-40.504h215.329c22.333,0,40.503,18.17,40.503,40.504v505.021
					C748.394,995.953,730.224,1014.122,707.891,1014.122z M492.563,433.092c-19.577,0-35.504,15.927-35.504,35.504v505.021
					c0,19.577,15.927,35.505,35.504,35.505h215.329c19.576,0,35.503-15.928,35.503-35.505V468.596
					c0-19.577-15.927-35.504-35.503-35.504H492.563z"/>
			</g>
		</g>
		
			<linearGradient id="SVGID_00000080894768821277622980000001292099175111563164_" gradientUnits="userSpaceOnUse" x1="561.5591" y1="490.3362" x2="638.8949" y2="490.3362">
			<stop  offset="0" style="stop-color:#F5F5F5"/>
			<stop  offset="0.8341" style="stop-color:#C8C8CA"/>
		</linearGradient>
		<path style="fill:url(#SVGID_00000080894768821277622980000001292099175111563164_);" d="M638.199,486.04h-75.944
			c-0.384,0-0.696,0.311-0.696,0.696v7.201c0,0.384,0.312,0.696,0.696,0.696h75.944c0.384,0,0.696-0.311,0.696-0.696v-7.201
			C638.895,486.351,638.583,486.04,638.199,486.04z"/>
		<rect x="474.612" y="512.275" style="fill:#98BABF;" width="251.23" height="388.689"/>
		<path style="fill:#FFFFFF;" d="M681.764,677.455l-24.466-17.731c0.007-0.084,0.013-0.169,0.013-0.255v-21.627
			c0-1.771-1.436-3.208-3.208-3.208h-13.117c-1.772,0-3.208,1.436-3.208,3.208v7.735l-35.669-21.719
			c-1.123-0.814-2.642-0.814-3.765,0l-79.654,53.596c-1.434,1.04-1.755,3.045-0.715,4.48l5.154,7.111
			c1.04,1.435,3.045,1.755,4.48,0.715l11.914-8.634v80.971c0,1.771,1.436,3.208,3.208,3.208h26.912c1.464,0,2.65-1.187,2.65-2.65
			v-68.772c0-3.513,2.848-6.361,6.361-6.361h43.147c3.513,0,6.361,2.848,6.361,6.361v68.772c0,1.464,1.187,2.65,2.65,2.65h26.912
			c1.772,0,3.208-1.436,3.208-3.208v-80.971l11.914,8.634c1.434,1.04,3.44,0.719,4.48-0.715l5.154-7.111
			C683.518,680.5,683.198,678.494,681.764,677.455z"/>
		
			<linearGradient id="SVGID_00000120529694853194296740000007923453620247283132_" gradientUnits="userSpaceOnUse" x1="574.352" y1="944.3891" x2="626.1008" y2="944.3891">
			<stop  offset="0" style="stop-color:#F5F5F5"/>
			<stop  offset="0.8341" style="stop-color:#C8C8CA"/>
		</linearGradient>
		<path style="fill:url(#SVGID_00000120529694853194296740000007923453620247283132_);" d="M623.51,928.587h-46.568
			c-1.43,0-2.59,1.16-2.59,2.59v26.424c0,1.431,1.16,2.59,2.59,2.59h46.568c1.431,0,2.59-1.16,2.59-2.59v-26.424
			C626.101,929.747,624.941,928.587,623.51,928.587z"/>
	</g>
	<g>
		
			<ellipse transform="matrix(0.7071 -0.7071 0.7071 0.7071 -76.3888 268.8403)" style="fill:#0D353D;" cx="286.324" cy="226.63" rx="96.898" ry="96.898"/>
		<path style="opacity:0.2;fill:#0D353D;" d="M286.324,129.732v193.795c53.515,0,96.898-43.382,96.898-96.898
			S339.84,129.732,286.324,129.732z"/>
		<g>
			<g>
				<path style="fill:#FFFFFF;" d="M270.17,236.465l-1.408-0.717c-12.928-6.577-20.959-19.667-20.959-34.16v-11.023h76.61v11.023
					c0,14.494-8.031,27.583-20.959,34.16l-1.408,0.716v-20.136c0-8.788-7.15-15.937-15.937-15.937
					c-8.788,0-15.937,7.149-15.937,15.937V236.465z M249.74,192.503v9.085c0,13.226,7.045,25.221,18.492,31.678v-16.937
					c0-9.856,8.019-17.875,17.875-17.875c9.856,0,17.875,8.019,17.875,17.875v16.937c11.447-6.457,18.492-18.452,18.492-31.678
					v-9.085H249.74z"/>
			</g>
			<rect x="238.271" y="179.083" style="fill:#FFFFFF;" width="95.672" height="5.901"/>
			<g>
				<path style="fill:#FFFFFF;" d="M286.107,202.332c-7.718,0-13.997,6.279-13.997,13.997v19.88
					c4.323,1.749,9.047,2.715,13.997,2.715h0c4.95,0,9.674-0.966,13.997-2.715v-19.88
					C300.104,208.611,293.825,202.332,286.107,202.332z M286.107,228.32c-6.549,0-11.857-5.309-11.857-11.857
					c0-6.549,5.309-11.857,11.857-11.857s11.857,5.309,11.857,11.857C297.965,223.011,292.656,228.32,286.107,228.32z"/>
				<path style="fill:#FFFFFF;" d="M286.107,206.181c-5.678,0-10.281,4.603-10.281,10.281c0,5.678,4.603,10.281,10.281,10.281
					c5.678,0,10.282-4.603,10.282-10.281C296.389,210.784,291.786,206.181,286.107,206.181z M286.107,221.265
					c-2.653,0-4.803-2.15-4.803-4.803c0-2.653,2.15-4.803,4.803-4.803c2.653,0,4.803,2.151,4.803,4.803
					C290.91,219.115,288.76,221.265,286.107,221.265z"/>
				<path style="fill:#FFFFFF;" d="M287.312,216.462c0-0.665-0.539-1.205-1.205-1.205c-0.665,0-1.205,0.539-1.205,1.205
					s0.539,1.205,1.205,1.205C286.773,217.667,287.312,217.128,287.312,216.462z"/>
			</g>
			<g>
				<g>
					<path style="fill:#FFFFFF;" d="M286.108,254.283c2.533,0,4.593-2.061,4.593-4.593c0-2.533-2.061-4.593-4.593-4.593
						c-2.533,0-4.594,2.061-4.594,4.593C281.514,252.223,283.575,254.283,286.108,254.283z"/>
				</g>
				<g>
					<path style="fill:#FFFFFF;" d="M286.108,277.704c10.658,0,20.254-5.925,25.044-15.462c0.509-1.013,0.099-2.252-0.915-2.761
						c-0.491-0.247-1.049-0.287-1.57-0.114c-0.521,0.173-0.944,0.538-1.191,1.029c-4.087,8.139-12.275,13.195-21.368,13.195
						c-9.093,0-17.281-5.056-21.368-13.195c-0.351-0.7-1.057-1.134-1.84-1.134c-0.321,0-0.631,0.074-0.921,0.219
						c-0.491,0.247-0.857,0.669-1.029,1.191c-0.173,0.522-0.132,1.079,0.114,1.57v0C265.854,271.78,275.45,277.704,286.108,277.704z
						"/>
				</g>
				<g>
					<path style="fill:#FFFFFF;" d="M286.108,262.064c-4.707,0-8.946-2.618-11.062-6.832c-0.247-0.491-0.67-0.857-1.191-1.029
						c-0.522-0.173-1.079-0.132-1.569,0.114c-0.491,0.247-0.857,0.67-1.03,1.191c-0.173,0.521-0.132,1.079,0.114,1.57
						c2.819,5.612,8.466,9.099,14.738,9.099c6.272,0,11.92-3.487,14.738-9.099c0.509-1.013,0.098-2.252-0.915-2.761
						c-0.29-0.146-0.599-0.219-0.92-0.219c-0.784,0-1.489,0.435-1.84,1.134C295.054,259.446,290.815,262.064,286.108,262.064z"/>
				</g>
			</g>
		</g>
	</g>
	<g>
		<circle style="fill:#0D353D;" cx="249.74" cy="805.553" r="80.607"/>
		<path style="opacity:0.2;fill:#0D353D;" d="M249.74,724.946V886.16c44.518,0,80.607-36.089,80.607-80.607
			S294.258,724.946,249.74,724.946z"/>
		<g>
			<g>
				<g>
					<rect x="204.787" y="820.731" style="fill:#FFFFFF;" width="92.257" height="0.562"/>
				</g>
				<g>
					<rect x="204.787" y="817.196" style="fill:#FFFFFF;" width="92.257" height="0.562"/>
				</g>
				<g>
					<rect x="204.787" y="813.661" style="fill:#FFFFFF;" width="92.257" height="0.562"/>
				</g>
				<g>
					<g>
						<path style="fill:#FFFFFF;" d="M305.164,826.2H194.318c-2.951,0-5.352-2.401-5.352-5.352v-30.589
							c0-2.951,2.401-5.352,5.352-5.352h110.846c2.951,0,5.352,2.401,5.352,5.352v30.589
							C310.516,823.799,308.115,826.2,305.164,826.2z M194.318,786.591c-2.022,0-3.667,1.645-3.667,3.667v30.589
							c0,2.022,1.645,3.667,3.667,3.667h110.846c2.022,0,3.667-1.645,3.667-3.667v-30.589c0-2.022-1.645-3.667-3.667-3.667H194.318z
							"/>
					</g>
				</g>
			</g>
			<g>
				<g>
					<path style="fill:#FFFFFF;" d="M249.74,768.381c-2.202,0-3.994,1.792-3.994,3.995c0,2.203,1.792,3.994,3.994,3.994
						c2.203,0,3.995-1.792,3.995-3.994C253.735,770.173,251.943,768.381,249.74,768.381z"/>
				</g>
				<g>
					<path style="fill:#FFFFFF;" d="M249.74,748.014c-9.268,0-17.613,5.152-21.778,13.446c-0.442,0.881-0.086,1.958,0.796,2.401
						c0.427,0.214,0.912,0.25,1.365,0.099c0.453-0.15,0.821-0.468,1.036-0.895c3.554-7.078,10.674-11.474,18.581-11.474
						c7.907,0,15.027,4.397,18.581,11.474c0.306,0.608,0.919,0.986,1.6,0.986c0.279,0,0.548-0.064,0.801-0.191
						c0.427-0.214,0.745-0.582,0.895-1.036c0.15-0.453,0.115-0.938-0.099-1.365v0C267.353,753.166,259.009,748.014,249.74,748.014z"
						/>
				</g>
				<g>
					<path style="fill:#FFFFFF;" d="M249.74,761.616c4.094,0,7.78,2.276,9.62,5.941c0.215,0.427,0.582,0.745,1.036,0.895
						c0.454,0.15,0.938,0.115,1.365-0.1c0.427-0.214,0.745-0.582,0.895-1.036c0.15-0.454,0.115-0.938-0.099-1.365
						c-2.451-4.88-7.362-7.912-12.816-7.912c-5.454,0-10.365,3.032-12.816,7.913c-0.443,0.881-0.085,1.958,0.796,2.401
						c0.252,0.127,0.521,0.191,0.8,0.191c0.682,0,1.295-0.378,1.6-0.987C241.961,763.892,245.647,761.616,249.74,761.616z"/>
				</g>
			</g>
			<g>
				<rect x="218.091" y="834.736" style="fill:#FFFFFF;" width="1.123" height="18.976"/>
				<rect x="238.816" y="834.736" style="fill:#FFFFFF;" width="1.123" height="18.976"/>
				<rect x="259.542" y="834.736" style="fill:#FFFFFF;" width="1.123" height="18.976"/>
				<rect x="280.267" y="834.736" style="fill:#FFFFFF;" width="1.123" height="18.976"/>
			</g>
		</g>
	</g>
	<g>
		
			<ellipse transform="matrix(0.7071 -0.7071 0.7071 0.7071 32.9712 512.0408)" style="fill:#0D353D;" cx="634.574" cy="216.221" rx="81.566" ry="81.566"/>
		<path style="opacity:0.2;fill:#0D353D;" d="M634.573,134.655v163.131c45.047,0,81.566-36.518,81.566-81.566
			S679.621,134.655,634.573,134.655z"/>
		<g>
			<g>
				<g>
					<path style="fill:#FFFFFF;" d="M662.681,179.789c-1.791-1.791-4.705-1.791-6.496,0c-1.791,1.791-1.791,4.705,0,6.496
						c1.791,1.791,4.705,1.791,6.496,0C664.472,184.494,664.472,181.579,662.681,179.789z"/>
				</g>
				<g>
					<path style="fill:#FFFFFF;" d="M679.242,163.227c-7.537-7.537-18.511-10.133-28.642-6.775
						c-1.076,0.357-1.662,1.523-1.305,2.599c0.173,0.522,0.538,0.945,1.029,1.191c0.491,0.247,1.048,0.287,1.57,0.114
						c8.645-2.865,18.01-0.651,24.44,5.779c6.43,6.43,8.644,15.795,5.779,24.439c-0.246,0.743-0.055,1.549,0.499,2.103
						c0.227,0.227,0.498,0.394,0.806,0.496c0.521,0.173,1.079,0.132,1.57-0.114c0.491-0.247,0.857-0.669,1.029-1.191l0,0
						C689.374,181.739,686.778,170.764,679.242,163.227z"/>
				</g>
				<g>
					<path style="fill:#FFFFFF;" d="M668.182,174.287c3.329,3.329,4.475,8.177,2.992,12.653c-0.173,0.522-0.132,1.079,0.114,1.57
						c0.247,0.491,0.67,0.856,1.19,1.029c0.522,0.173,1.079,0.132,1.57-0.114c0.491-0.246,0.856-0.669,1.029-1.191
						c1.976-5.962,0.448-12.42-3.987-16.855c-4.435-4.435-10.894-5.963-16.856-3.988c-1.076,0.357-1.662,1.523-1.305,2.599
						c0.102,0.308,0.268,0.579,0.496,0.806c0.554,0.554,1.36,0.746,2.104,0.499C660.005,169.812,664.853,170.959,668.182,174.287z"
						/>
				</g>
			</g>
			<g>
				<path style="fill:#FFFFFF;" d="M642.155,215.199c0-4.181-3.401-7.581-7.582-7.581c-4.18,0-7.581,3.401-7.581,7.581
					c0,3.851,2.889,7.034,6.612,7.512v11.914h1.938v-11.914C639.266,222.233,642.155,219.05,642.155,215.199z M634.573,220.842
					c-3.112,0-5.643-2.532-5.643-5.644c0-3.112,2.532-5.644,5.643-5.644s5.644,2.532,5.644,5.644
					C640.217,218.31,637.685,220.842,634.573,220.842z"/>
				<g>
					<rect x="633.605" y="170.169" style="fill:#FFFFFF;" width="1.938" height="9.939"/>
				</g>
				<g>
					<rect x="663.356" y="207.922" style="fill:#FFFFFF;" width="9.939" height="1.938"/>
				</g>
				<g>
					<rect x="595.852" y="207.922" style="fill:#FFFFFF;" width="9.939" height="1.938"/>
				</g>
				<g>
					
						<rect x="605.738" y="231.788" transform="matrix(0.7072 -0.7071 0.7071 0.7072 14.2687 499.9647)" style="fill:#FFFFFF;" width="9.939" height="1.938"/>
				</g>
				<g>
					
						<rect x="657.471" y="227.787" transform="matrix(0.7071 -0.7071 0.7071 0.7071 28.2687 533.7601)" style="fill:#FFFFFF;" width="1.938" height="9.939"/>
				</g>
				<g>
					
						<rect x="609.738" y="180.055" transform="matrix(0.7071 -0.7071 0.7071 0.7071 48.0379 486.0237)" style="fill:#FFFFFF;" width="1.938" height="9.939"/>
				</g>
				<path style="fill:#FFFFFF;" d="M639.403,262.272h-9.658c-0.646,0-1.26-0.346-1.685-0.949l-0.825-1.172h14.677l-0.825,1.172
					C640.662,261.926,640.048,262.272,639.403,262.272z"/>
				<path style="fill:#FFFFFF;" d="M644.138,250.296h-19.13c-0.979,0-1.773-0.794-1.773-1.773v-0.103
					c0-0.979,0.794-1.773,1.773-1.773h19.13c0.979,0,1.773,0.794,1.773,1.773v0.103
					C645.911,249.502,645.117,250.296,644.138,250.296z"/>
				<path style="fill:#FFFFFF;" d="M644.138,254.797h-19.13c-0.979,0-1.773-0.794-1.773-1.772v-0.103
					c0-0.979,0.794-1.773,1.773-1.773h19.13c0.979,0,1.773,0.794,1.773,1.773v0.103
					C645.911,254.003,645.117,254.797,644.138,254.797z"/>
				<path style="fill:#FFFFFF;" d="M644.138,259.298h-19.13c-0.979,0-1.773-0.794-1.773-1.773v-0.102
					c0-0.979,0.794-1.773,1.773-1.773h19.13c0.979,0,1.773,0.794,1.773,1.773v0.102
					C645.911,258.504,645.117,259.298,644.138,259.298z"/>
				<g>
					<path style="fill:#FFFFFF;" d="M639.131,245.294h-9.114c-4.264,0-7.733-3.469-7.733-7.733v-3.667
						c0-2.642-1.195-5.156-3.277-6.899c-5.539-4.636-8.711-11.432-8.702-18.647c0.016-13.365,10.904-24.239,24.269-24.239
						c0.001,0,0,0,0.001,0c13.382,0,24.268,10.887,24.268,24.269c0,7.236-3.196,14.042-8.767,18.672
						c-2.041,1.696-3.212,4.191-3.212,6.844v3.668C646.864,241.825,643.395,245.294,639.131,245.294z M634.574,186.046
						c-12.299,0-22.317,10.005-22.332,22.304c-0.008,6.639,2.911,12.893,8.008,17.158c2.524,2.112,3.971,5.169,3.971,8.385v3.667
						c0,3.195,2.6,5.795,5.795,5.795h9.114c3.195,0,5.795-2.6,5.795-5.795v-3.668c0-3.231,1.426-6.269,3.911-8.334
						c5.127-4.261,8.068-10.523,8.068-17.182C656.905,196.064,646.887,186.047,634.574,186.046z"/>
				</g>
			</g>
		</g>
	</g>
	<g>
		<circle style="fill:#0D353D;" cx="994.115" cy="736.448" r="96.898"/>
		<path style="opacity:0.2;fill:#0D353D;" d="M994.115,639.55v193.795c53.515,0,96.898-43.382,96.898-96.897
			C1091.013,682.933,1047.63,639.55,994.115,639.55z"/>
		<g>
			<g>
				<g>
					<path style="fill:#FFFFFF;" d="M1039.952,768.886h-91.674v-51.398h91.674V768.886z M948.924,768.24h90.382v-50.106h-90.382
						V768.24z"/>
				</g>
				<g>
					<g>
						<path style="fill:#FFFFFF;" d="M1040.275,772.545h-92.32v-58.717h92.32V772.545z M949.247,771.253h89.736V715.12h-89.736
							V771.253z"/>
					</g>
				</g>
				<g>
					<rect x="978.105" y="776.221" style="fill:#FFFFFF;" width="32.02" height="3.586"/>
				</g>
			</g>
			<g>
				<g>
					<path style="fill:#FFFFFF;" d="M994.115,697.702c-2.533,0-4.594,2.061-4.594,4.593c0,2.533,2.061,4.593,4.594,4.593
						c2.533,0,4.593-2.061,4.593-4.593C998.708,699.763,996.648,697.702,994.115,697.702z"/>
				</g>
				<g>
					<path style="fill:#FFFFFF;" d="M994.115,674.281c-10.659,0-20.255,5.925-25.044,15.462c-0.509,1.013-0.098,2.252,0.915,2.761
						c0.492,0.247,1.049,0.287,1.57,0.114c0.521-0.173,0.944-0.538,1.191-1.029c4.087-8.139,12.275-13.195,21.368-13.195
						c9.093,0,17.281,5.056,21.368,13.195c0.351,0.7,1.057,1.134,1.84,1.134c0.321,0,0.631-0.074,0.921-0.219
						c0.491-0.247,0.857-0.669,1.029-1.191c0.173-0.522,0.133-1.079-0.114-1.57v0
						C1014.369,680.206,1004.773,674.281,994.115,674.281z"/>
				</g>
				<g>
					<path style="fill:#FFFFFF;" d="M994.115,689.922c4.707,0,8.946,2.618,11.062,6.832c0.247,0.491,0.67,0.857,1.191,1.029
						c0.522,0.173,1.079,0.132,1.569-0.114c0.491-0.247,0.857-0.67,1.03-1.191c0.173-0.521,0.132-1.079-0.114-1.57
						c-2.819-5.612-8.466-9.099-14.738-9.099c-6.273,0-11.92,3.487-14.738,9.099c-0.509,1.013-0.098,2.252,0.915,2.761
						c0.29,0.146,0.599,0.219,0.92,0.219c0.784,0,1.489-0.435,1.841-1.134C985.168,692.54,989.407,689.922,994.115,689.922z"/>
				</g>
			</g>
		</g>
	</g>
	<g>
		
			<ellipse transform="matrix(0.7071 -0.7071 0.7071 0.7071 -285.6782 282.3912)" style="fill:#0D353D;" cx="198.037" cy="486.04" rx="96.898" ry="96.898"/>
		<path style="opacity:0.2;fill:#0D353D;" d="M198.037,389.142v193.795c53.515,0,96.898-43.383,96.898-96.898
			S251.552,389.142,198.037,389.142z"/>
		<g>
			<g>
				<g>
					<path style="fill:#FFFFFF;" d="M198.037,445.326c-2.533,0-4.594,2.061-4.594,4.594s2.061,4.593,4.594,4.593
						c2.533,0,4.593-2.061,4.593-4.593S200.57,445.326,198.037,445.326z"/>
				</g>
				<g>
					<path style="fill:#FFFFFF;" d="M198.037,421.905c-10.658,0-20.255,5.925-25.044,15.462c-0.509,1.014-0.098,2.252,0.915,2.761
						c0.491,0.247,1.049,0.287,1.57,0.114c0.521-0.173,0.944-0.538,1.191-1.029c4.087-8.139,12.275-13.195,21.368-13.195
						c9.093,0,17.281,5.056,21.368,13.195c0.351,0.7,1.057,1.134,1.84,1.134c0.321,0,0.631-0.074,0.921-0.22
						c0.491-0.246,0.857-0.669,1.029-1.191c0.173-0.521,0.132-1.079-0.114-1.57v0C218.291,427.829,208.695,421.905,198.037,421.905z
						"/>
				</g>
				<g>
					<path style="fill:#FFFFFF;" d="M198.037,437.546c4.707,0,8.946,2.618,11.062,6.832c0.247,0.491,0.67,0.857,1.191,1.029
						c0.522,0.173,1.079,0.132,1.569-0.114c0.491-0.247,0.857-0.67,1.03-1.191c0.173-0.522,0.132-1.079-0.114-1.57
						c-2.819-5.612-8.466-9.099-14.738-9.099c-6.273,0-11.92,3.487-14.738,9.099c-0.509,1.013-0.098,2.252,0.915,2.761
						c0.29,0.146,0.599,0.22,0.92,0.22c0.784,0,1.489-0.435,1.84-1.134C189.09,440.164,193.329,437.546,198.037,437.546z"/>
				</g>
			</g>
			<g>
				<g>
					<path style="fill:#FFFFFF;" d="M198.037,549.55c-11.882,0-21.548-9.666-21.548-21.548c0-8.043,4.561-15.483,11.681-19.16
						V472.75c0-5.441,4.426-9.867,9.867-9.867c5.441,0,9.867,4.426,9.867,9.867v36.092c7.12,3.676,11.681,11.116,11.681,19.16
						C219.586,539.883,209.919,549.55,198.037,549.55z M198.037,465.202c-4.162,0-7.548,3.386-7.548,7.548v37.546l-0.664,0.314
						c-6.693,3.166-11.017,9.993-11.017,17.391c0,10.603,8.626,19.229,19.229,19.229c10.603,0,19.229-8.626,19.229-19.229
						c0-7.399-4.324-14.225-11.017-17.391l-0.664-0.314V472.75C205.585,468.588,202.199,465.202,198.037,465.202z"/>
				</g>
				<path style="fill:#FFFFFF;" d="M201.891,515.95v-22.499c0-2.128-1.725-3.854-3.854-3.854l0,0c-2.128,0-3.854,1.725-3.854,3.854
					v22.499c-5.102,1.63-8.797,6.408-8.797,12.051c0,6.987,5.664,12.651,12.651,12.651c6.987,0,12.651-5.664,12.651-12.651
					C210.688,522.359,206.993,517.581,201.891,515.95z"/>
			</g>
		</g>
	</g>
	<g>
		
			<ellipse transform="matrix(0.7071 -0.7071 0.7071 0.7071 123.1368 667.3273)" style="fill:#0D353D;" cx="867.104" cy="185.024" rx="80.756" ry="80.756"/>
		<path style="opacity:0.2;fill:#0D353D;" d="M867.104,104.268V265.78c44.6,0,80.756-36.156,80.756-80.756
			S911.704,104.268,867.104,104.268z"/>
		<g>
			<g>
				<g>
					<path style="fill:#FFFFFF;" d="M913.729,162.681h-90.988c-4.423,0-8.021,3.598-8.021,8.021v29.597
						c0,4.423,3.598,8.021,8.021,8.021h90.988c4.423,0,8.021-3.598,8.021-8.021v-29.597
						C921.75,166.279,918.152,162.681,913.729,162.681z M920.161,200.299c0,3.546-2.885,6.432-6.432,6.432h-90.988
						c-3.546,0-6.431-2.885-6.431-6.432v-29.597c0-3.546,2.885-6.431,6.431-6.431h90.988c3.546,0,6.432,2.885,6.432,6.431V200.299z"
						/>
					<rect x="827.919" y="209.957" style="fill:#FFFFFF;" width="79.986" height="3.504"/>
					<g>
						<path style="fill:#FFFFFF;" d="M850.003,171.594c-1.808,0-3.354,0.638-4.637,1.914c-1.283,1.276-1.925,2.825-1.925,4.648
							v14.961c0,1.808,0.638,3.35,1.914,4.626c1.276,1.276,2.825,1.914,4.648,1.914c1.793,0,3.332-0.634,4.615-1.903
							c1.283-1.269,1.925-2.814,1.925-4.637v-14.961c0-1.808-0.634-3.354-1.903-4.637
							C853.371,172.236,851.826,171.594,850.003,171.594z M852.256,193.051c0,0.657-0.233,1.218-0.7,1.684
							c-0.467,0.467-1.028,0.7-1.684,0.7c-0.656,0-1.214-0.233-1.673-0.7c-0.459-0.467-0.689-1.028-0.689-1.684v-14.982
							c0-0.656,0.23-1.217,0.689-1.684c0.459-0.467,1.017-0.7,1.673-0.7c0.656,0,1.217,0.233,1.684,0.7
							c0.467,0.467,0.7,1.028,0.7,1.684V193.051z"/>
						<rect x="865.009" y="189.747" style="fill:#FFFFFF;" width="4.134" height="4.112"/>
						<rect x="865.009" y="178.111" style="fill:#FFFFFF;" width="4.134" height="4.156"/>
						<path style="fill:#FFFFFF;" d="M900.651,173.519c-1.269-1.283-2.814-1.925-4.637-1.925c-1.808,0-3.354,0.638-4.637,1.914
							c-1.283,1.276-1.925,2.825-1.925,4.648v14.961c0,1.808,0.638,3.35,1.914,4.626c1.276,1.276,2.825,1.914,4.648,1.914
							c1.794,0,3.332-0.634,4.615-1.903c1.283-1.269,1.925-2.814,1.925-4.637v-14.961
							C902.554,176.348,901.92,174.802,900.651,173.519z M898.267,193.051c0,0.657-0.234,1.218-0.7,1.684
							c-0.467,0.467-1.028,0.7-1.684,0.7c-0.656,0-1.214-0.233-1.673-0.7c-0.459-0.467-0.689-1.028-0.689-1.684v-14.982
							c0-0.656,0.23-1.217,0.689-1.684c0.459-0.467,1.017-0.7,1.673-0.7c0.656,0,1.218,0.233,1.684,0.7
							c0.466,0.467,0.7,1.028,0.7,1.684V193.051z"/>
						<rect x="832.598" y="171.594" style="fill:#FFFFFF;" width="4.134" height="27.778"/>
						<rect x="878.609" y="171.594" style="fill:#FFFFFF;" width="4.134" height="27.778"/>
					</g>
				</g>
			</g>
			<g>
				<g>
					<path style="fill:#FFFFFF;" d="M867.075,149.345c-2.052,0-3.721,1.669-3.721,3.721c0,2.052,1.669,3.721,3.721,3.721
						s3.721-1.669,3.721-3.721C870.796,151.014,869.127,149.345,867.075,149.345z"/>
				</g>
				<g>
					<path style="fill:#FFFFFF;" d="M867.075,130.372c-8.634,0-16.408,4.799-20.287,12.525c-0.412,0.821-0.08,1.824,0.741,2.236
						c0.398,0.2,0.85,0.233,1.272,0.093c0.422-0.14,0.765-0.436,0.965-0.834c3.311-6.593,9.943-10.689,17.31-10.689
						c7.366,0,13.999,4.096,17.309,10.689c0.285,0.567,0.856,0.919,1.491,0.919c0.26,0,0.511-0.06,0.746-0.178
						c0.398-0.2,0.694-0.542,0.834-0.965c0.14-0.422,0.107-0.874-0.092-1.272v0C883.483,135.171,875.709,130.372,867.075,130.372z"
						/>
				</g>
				<g>
					<path style="fill:#FFFFFF;" d="M867.075,143.042c3.813,0,7.247,2.12,8.961,5.534c0.2,0.398,0.542,0.694,0.965,0.834
						c0.423,0.14,0.874,0.107,1.271-0.093c0.398-0.2,0.694-0.542,0.834-0.965c0.14-0.422,0.107-0.874-0.093-1.272
						c-2.283-4.546-6.858-7.371-11.939-7.371c-5.081,0-9.656,2.824-11.939,7.371c-0.412,0.821-0.079,1.824,0.742,2.236
						c0.235,0.118,0.485,0.178,0.746,0.178c0.635,0,1.206-0.352,1.491-0.919C859.828,145.163,863.262,143.042,867.075,143.042z"/>
				</g>
			</g>
		</g>
	</g>
	<g>
		<circle style="fill:#0D353D;" cx="1032.488" cy="475.391" r="87.661"/>
		<path style="opacity:0.2;fill:#0D353D;" d="M1032.488,387.73v175.322c48.414,0,87.661-39.247,87.661-87.661
			C1120.15,426.977,1080.902,387.73,1032.488,387.73z"/>
		<g>
			<g>
				<g>
					<g>
						<path style="fill:#FFFFFF;" d="M1048.828,536.486h-32.68c-3.13,0-5.677-2.547-5.677-5.677v-75.595
							c0-3.13,2.547-5.677,5.677-5.677h32.68c3.13,0,5.677,2.547,5.677,5.677v75.595
							C1054.505,533.94,1051.958,536.486,1048.828,536.486z M1016.149,451.475c-2.062,0-3.739,1.677-3.739,3.739v75.595
							c0,2.062,1.677,3.739,3.739,3.739h32.68c2.062,0,3.739-1.677,3.739-3.739v-75.595c0-2.062-1.677-3.739-3.739-3.739H1016.149z"
							/>
					</g>
					
						<ellipse transform="matrix(0.9732 -0.2298 0.2298 0.9732 -81.1134 249.8761)" style="fill:#FFFFFF;" cx="1032.488" cy="473.264" rx="8.096" ry="8.096"/>
					<g>
						<path style="fill:#FFFFFF;" d="M1032.488,488.323c-8.303,0-15.059-6.755-15.059-15.059c0-8.303,6.755-15.059,15.059-15.059
							s15.059,6.755,15.059,15.059C1047.547,481.568,1040.792,488.323,1032.488,488.323z M1032.488,459.497
							c-7.591,0-13.767,6.176-13.767,13.767c0,7.591,6.176,13.767,13.767,13.767s13.767-6.176,13.767-13.767
							C1046.255,465.673,1040.079,459.497,1032.488,459.497z"/>
					</g>
				</g>
				<g>
					<g>
						<path style="fill:#FFFFFF;" d="M1032.488,430.647c-2.533,0-4.594,2.061-4.594,4.593c0,2.533,2.061,4.593,4.594,4.593
							s4.594-2.061,4.594-4.593C1037.081,432.707,1035.021,430.647,1032.488,430.647z"/>
					</g>
					<g>
						<path style="fill:#FFFFFF;" d="M1032.488,407.226c-10.658,0-20.255,5.925-25.044,15.462c-0.509,1.013-0.098,2.252,0.915,2.761
							c0.491,0.247,1.049,0.287,1.57,0.114c0.521-0.173,0.944-0.538,1.191-1.029c4.087-8.139,12.275-13.195,21.368-13.195
							c9.093,0,17.281,5.056,21.368,13.195c0.351,0.7,1.057,1.134,1.84,1.134c0.321,0,0.631-0.074,0.921-0.219
							c0.491-0.247,0.857-0.669,1.029-1.191c0.173-0.521,0.132-1.079-0.114-1.57v0
							C1052.742,413.15,1043.146,407.226,1032.488,407.226z"/>
					</g>
					<g>
						<path style="fill:#FFFFFF;" d="M1032.488,422.867c4.707,0,8.946,2.618,11.062,6.832c0.247,0.491,0.67,0.857,1.191,1.03
							c0.522,0.173,1.079,0.132,1.569-0.114c0.491-0.247,0.857-0.67,1.03-1.191c0.173-0.521,0.132-1.079-0.114-1.57
							c-2.819-5.612-8.466-9.099-14.738-9.099c-6.272,0-11.92,3.487-14.738,9.099c-0.509,1.013-0.098,2.252,0.915,2.761
							c0.29,0.146,0.599,0.219,0.92,0.219c0.784,0,1.489-0.435,1.84-1.134C1023.542,425.484,1027.781,422.867,1032.488,422.867z"/>
					</g>
				</g>
			</g>
			<g>
				<g>
					<rect x="1029.626" y="506.788" style="fill:#FFFFFF;" width="5.725" height="5.725"/>
					<rect x="1018.688" y="506.788" style="fill:#FFFFFF;" width="5.725" height="5.725"/>
				</g>
				<g>
					<rect x="1029.626" y="496.072" style="fill:#FFFFFF;" width="5.725" height="5.725"/>
					<rect x="1018.688" y="496.072" style="fill:#FFFFFF;" width="5.725" height="5.725"/>
				</g>
			</g>
			<g>
				<g>
					<rect x="1040.564" y="506.788" style="fill:#FFFFFF;" width="5.725" height="5.725"/>
				</g>
				<g>
					<rect x="1040.564" y="496.072" style="fill:#FFFFFF;" width="5.725" height="5.725"/>
				</g>
			</g>
			<g>
				<g>
					<rect x="1029.626" y="517.504" style="fill:#FFFFFF;" width="5.725" height="5.725"/>
					<rect x="1018.688" y="517.504" style="fill:#FFFFFF;" width="5.725" height="5.725"/>
				</g>
			</g>
			<g>
				<g>
					<rect x="1040.564" y="517.504" style="fill:#FFFFFF;" width="5.725" height="5.725"/>
				</g>
			</g>
		</g>
	</g>
	<path style="fill:#EBBB9B;" d="M438.233,610.469L438.233,610.469c-15.395-3.003-30.306,7.055-33.289,22.454l-29.371,119.525
		c-0.111,0.572-0.195,1.15-0.252,1.73l-12.96,129.39c-1.676,11.332,0.114,22.907,5.134,33.204l11.577,63.76
		c0.525,2.892,1.075,5.789,1.958,8.592c1.369,4.346,0.416,9.153-2.63,12.665l-150.45,156.086h263.127l-45.1-214.207l1.596-55.107
		l-0.069-122.444c0-0.54,0.029-1.08,0.087-1.617l13.419-123.105C462.608,626.733,452.708,613.292,438.233,610.469z"/>
	<path style="fill:#EBBB9B;" d="M754.175,819.914l-20.69,36.019c-6.421,10.876-3.599,24.844,6.541,32.373h0
		c10.85,8.057,26.162,5.893,34.355-4.855l25.912-31.745c8.063-10.579,10.5-32.563,0.206-40.989l-5.222-4.275
		C783.568,796.859,761.867,806.884,754.175,819.914z"/>
	<path style="fill:#EBBB9B;" d="M786.914,692.783l5.432,2.615c13.867,6.676,22.958,27.292,13.345,43.102l-24.577,42.08
		c-8.757,14.401-30.614,19.024-42.454,11.458l0,0c-11.152-7.128-14.388-23.471-7.486-37.806l19.145-44.695
		C757.738,694.125,774.123,686.625,786.914,692.783z"/>
	<path style="fill:#EBBB9B;" d="M778.691,587.132l8.369,4.261c16.494,8.399,21.435,29.638,10.341,44.454l-26.016,34.744
		c-9.013,12.038-25.579,15.482-38.644,8.035h0c-13.376-7.624-18.75-24.177-12.404-38.205l17.647-39.006
		C744.997,585.917,763.532,579.413,778.691,587.132z"/>
	<polygon style="fill:#FFFFFF;" points="337.39,999.185 554.039,1117.871 500.889,1200 112.468,1200 	"/>
	<g>
		<g>
			<rect x="632.074" y="311.866" style="fill:#FFFFFF;" width="5" height="4"/>
		</g>
		<g>
			<path style="fill:#FFFFFF;" d="M637.074,392.738h-5v-7.688h5V392.738z M637.074,377.364h-5v-7.688h5V377.364z M637.074,361.99h-5
				v-7.688h5V361.99z M637.074,346.616h-5v-7.688h5V346.616z M637.074,331.241h-5v-7.688h5V331.241z"/>
		</g>
		<g>
			<rect x="632.074" y="400.424" style="fill:#FFFFFF;" width="5" height="4"/>
		</g>
	</g>
	<g>
		<path style="fill:#FFFFFF;" d="M859.358,543.016h-8v-5h8V543.016z M843.358,543.016h-8v-5h8V543.016z M827.358,543.016h-8v-5h8
			V543.016z M811.358,543.016h-8v-5h8V543.016z M869.604,540.262h-5v-8h5V540.262z M869.604,524.262h-5v-8h5V524.262z
			 M869.604,508.261h-5v-8h5V508.261z M869.604,492.261h-5v-8h5V492.261z M869.604,476.261h-5v-8h5V476.261z M869.604,460.261h-5v-8
			h5V460.261z M869.604,444.261h-5v-8h5V444.261z M869.604,428.261h-5v-8h5V428.261z M869.604,412.261h-5v-8h5V412.261z
			 M869.604,396.261h-5v-7.999h5V396.261z M869.604,380.262h-5v-8h5V380.262z M869.604,364.262h-5v-8h5V364.262z M869.604,348.262
			h-5v-8h5V348.262z M869.604,332.262h-5v-8h5V332.262z M869.604,316.262h-5v-8h5V316.262z M869.604,300.262h-5v-8h5V300.262z
			 M869.604,284.262h-5v-2.27h5V284.262z"/>
	</g>
	<g>
		<path style="fill:#FFFFFF;" d="M431.553,492.836h-8v-5h8V492.836z M415.553,492.836h-8v-5h8V492.836z M399.553,492.836h-8v-5h8
			V492.836z M383.553,492.836h-8v-5h8V492.836z M367.553,492.836h-8v-5h8V492.836z M351.553,492.836h-8v-5h8V492.836z
			 M335.553,492.836h-8v-5h8V492.836z M319.553,492.836h-8v-5h8V492.836z"/>
	</g>
	<g>
		<path style="fill:#FFFFFF;" d="M888.978,738.948l-0.042-5h0.042V738.948z M880.936,738.948h-8v-5h8V738.948z M864.936,738.948h-8
			v-5h8V738.948z M848.936,738.948h-8v-5h8V738.948z M832.936,738.948h-8v-5h8V738.948z"/>
	</g>
	<g>
		<path style="fill:#FFFFFF;" d="M1027.7,602.976h-8v-5h8V602.976z M1011.7,602.976h-8v-5h8V602.976z M995.7,602.976h-8v-5h8
			V602.976z M979.7,602.976h-8v-5h8V602.976z M963.7,602.976h-8v-5h8V602.976z M947.7,602.976h-8v-5h8V602.976z M931.7,602.976h-8
			v-5h8V602.976z M915.7,602.976h-8v-5h8V602.976z M899.7,602.976h-8v-5h8V602.976z M883.7,602.976h-8v-5h8V602.976z M867.7,602.976
			h-8v-5h8V602.976z M851.7,602.976h-8v-5h8V602.976z M835.7,602.976h-8v-5h8V602.976z M819.7,602.976h-2.34v-5h2.34V602.976z
			 M1034.989,597.265h-5v-8h5V597.265z M1034.989,581.265h-5v-8h5V581.265z"/>
	</g>
	<g>
		<path style="fill:#FFFFFF;" d="M485.299,404.424h-5v-1.464h5V404.424z M485.299,394.96h-5v-8h5V394.96z M485.299,378.96h-5v-8h5
			V378.96z M485.299,362.96h-5v-8h5V362.96z M485.299,346.96h-5v-8h5V346.96z M485.299,330.96h-5v-8h5V330.96z M485.299,314.96h-5
			v-8h5V314.96z M485.299,298.96h-5v-8h5V298.96z M485.299,282.96h-5v-8h5V282.96z M485.299,266.96h-5v-8h5V266.96z M485.299,250.96
			h-5v-8.001h5V250.96z M482.799,235.766h-6.306v-5h8.806v4.193h-2.5V235.766z M468.493,235.766h-8v-5h8V235.766z M452.493,235.766
			h-8v-5h8V235.766z M436.493,235.766h-8v-5h8V235.766z M420.493,235.766h-8v-5h8V235.766z M404.493,235.766h-8v-5h8V235.766z"/>
	</g>
	<g>
		<path style="fill:#FFFFFF;" d="M252.241,709.983h-5v-8h5V709.983z M252.241,693.983h-5v-8h5V693.983z M252.241,677.983h-5v-8h5
			V677.983z M252.241,661.983h-5v-8h5V661.983z M252.241,645.983h-5v-8h5V645.983z M252.241,629.983h-5v-8h5V629.983z
			 M252.241,613.983h-5v-8h5V613.983z M434.145,602.713h-6.174v-5h6.174V602.713z M419.971,602.713h-8v-5h8V602.713z
			 M403.971,602.713h-8v-5h8V602.713z M387.971,602.713h-8v-5h8V602.713z M371.971,602.713h-8v-5h8V602.713z M355.971,602.713h-8v-5
			h8V602.713z M339.971,602.713h-8v-5h8V602.713z M323.971,602.713h-8v-5h8V602.713z M307.971,602.713h-8v-5h8V602.713z
			 M291.971,602.713h-8v-5h8V602.713z M275.971,602.713h-8v-5h8V602.713z M259.971,602.713h-8v-5h8V602.713z"/>
	</g>
	<g>
		<path style="fill:#FFFFFF;" d="M851.301,932.612c-1.735,0-3.158,0.461-4.268,1.382c-1.112,0.923-1.667,2.25-1.667,3.984
			c0,1.735,0.515,3.13,1.545,4.188c1.029,1.057,2.371,1.869,4.024,2.438c1.653,0.569,3.496,1.111,5.529,1.626
			c2.032,0.516,4.051,1.139,6.057,1.87c2.004,0.731,3.834,1.64,5.488,2.724c1.653,1.085,2.994,2.616,4.024,4.594
			c1.029,1.979,1.545,4.35,1.545,7.114c0,4.824-1.965,8.957-5.895,12.398c-3.931,3.442-9.106,5.163-15.529,5.163
			c-6.423,0-11.6-1.545-15.529-4.635c-3.93-3.089-5.894-7.48-5.894-13.171h14.797c0.379,4.553,2.71,6.829,6.992,6.829
			c2.005,0,3.577-0.528,4.716-1.585c1.138-1.057,1.707-2.398,1.707-4.024s-0.516-2.954-1.544-3.984
			c-1.03-1.028-2.372-1.842-4.025-2.439c-1.654-0.596-3.496-1.151-5.528-1.667c-2.033-0.515-4.053-1.151-6.057-1.91
			c-2.006-0.759-3.836-1.667-5.488-2.725c-1.654-1.057-2.995-2.573-4.024-4.553c-1.03-1.977-1.544-4.321-1.544-7.032
			c0-5.312,1.978-9.566,5.935-12.765c3.956-3.198,9.011-4.797,15.163-4.797c6.151,0,11.124,1.396,14.919,4.187
			c3.793,2.793,5.772,7.195,5.935,13.212h-15.122c-0.217-2.059-0.882-3.644-1.992-4.756
			C854.458,933.169,853.035,932.612,851.301,932.612z"/>
		<path style="fill:#FFFFFF;" d="M949.189,922.449v57.075h-13.903v-32.196l-13.252,32.196h-10.326l-13.252-32.196v32.196h-13.903
			v-57.075h15.936l16.423,39.351l16.342-39.351H949.189z"/>
		<path style="fill:#FFFFFF;" d="M997.645,979.525l-3.171-9.594h-20.488l-3.171,9.594h-14.797l19.838-57.237h16.911l19.756,57.237
			H997.645z M977.482,959.362h13.497l-6.748-20.326L977.482,959.362z"/>
		<path style="fill:#FFFFFF;" d="M1033.256,957.328v22.196h-13.903v-57.075h22.521c6.612,0,11.761,1.708,15.448,5.122
			c3.686,3.415,5.529,7.535,5.529,12.358c0,3.307-1.004,6.532-3.008,9.675c-2.006,3.145-5.285,5.366-9.838,6.667l13.984,23.253
			h-16.261l-12.846-22.196H1033.256z M1033.256,933.019v13.74h8.618c2.114,0,3.781-0.622,5-1.869
			c1.219-1.247,1.829-2.887,1.829-4.919c0-2.033-0.624-3.699-1.87-5.001c-1.248-1.301-2.9-1.951-4.959-1.951H1033.256z"/>
		<path style="fill:#FFFFFF;" d="M1069.761,933.019v-10.569h45.042v10.569h-15.61v46.506h-13.903v-46.506H1069.761z"/>
	</g>
	<g>
		<path style="fill:#FFFFFF;" d="M873.787,1000.107h16.646v68.336h-16.646v-28.327h-26.38v28.327h-16.646v-68.336h16.646v27.353
			h26.38V1000.107z"/>
		<path style="fill:#FFFFFF;" d="M911.215,1059.194c-6.782-6.619-10.173-14.991-10.173-25.114c0-10.124,3.391-18.479,10.173-25.066
			c6.78-6.586,15.088-9.881,24.92-9.881c9.832,0,18.106,3.295,24.823,9.881c6.717,6.587,10.075,14.942,10.075,25.066
			c0,10.123-3.376,18.495-10.124,25.114c-6.75,6.62-15.024,9.93-24.823,9.93C926.286,1069.124,917.995,1065.815,911.215,1059.194z
			 M949.18,1048.39c3.276-3.568,4.916-8.339,4.916-14.31s-1.64-10.74-4.916-14.31c-3.278-3.568-7.658-5.354-13.142-5.354
			c-5.485,0-9.865,1.786-13.142,5.354c-3.278,3.569-4.916,8.339-4.916,14.31s1.638,10.741,4.916,14.31
			c3.276,3.569,7.657,5.354,13.142,5.354C941.521,1053.743,945.902,1051.959,949.18,1048.39z"/>
		<path style="fill:#FFFFFF;" d="M1059.13,1000.107v68.336h-16.646v-38.549l-15.867,38.549h-12.363l-15.867-38.549v38.549h-16.646
			v-68.336h19.08l19.664,47.115l19.566-47.115H1059.13z"/>
		<path style="fill:#FFFFFF;" d="M1115.102,999.912v12.654h-24.725v14.699h21.805v12.654h-21.805v15.867h24.725v12.655h-41.371
			v-68.53H1115.102z"/>
	</g>
</g>
</svg>
